<svg width="402" height="413" viewBox="0 0 402 413" fill="none" xmlns="http://www.w3.org/2000/svg">
<g clip-path="url(#clip0)">
<path d="M83.0037 139.369C123.604 150.148 134.75 141.253 142.505 134.777C235.104 47.931 316.287 76.1242 360.572 159.957C404.857 243.79 364.072 305.985 319.98 337.428C275.887 368.871 272.529 358.022 155.025 348.162C37.5206 338.302 25.1617 305.814 10.1442 262.277C-15.7834 187.112 42.4036 128.589 83.0037 139.369Z" fill="#F0F0F0"/>
<g clip-path="url(#clip1)">
<path d="M157.956 130.712C146.771 126.814 151.25 95.4843 124.367 112.319C118.277 116.137 110.877 141.222 115.989 147.003C123.126 155.131 171.138 135.301 157.956 130.712Z" fill="#263238"/>
<path d="M126.479 160.456C126.259 160.868 126.127 161.096 125.951 161.394L125.44 162.208C125.097 162.742 124.728 163.25 124.349 163.758C123.599 164.762 122.794 165.724 121.938 166.64C120.18 168.503 118.18 170.123 115.989 171.457C113.728 172.862 111.229 173.847 108.615 174.365C107.3 174.633 105.962 174.771 104.62 174.777C103.951 174.777 103.291 174.733 102.631 174.707L101.646 174.593L101.162 174.532L100.467 174.409C98.8206 174.001 97.3081 173.178 96.0755 172.018C95.0704 171.08 94.1839 170.025 93.4356 168.874C92.1161 166.82 91.0272 164.629 90.1884 162.34C88.577 158.02 87.4439 153.538 86.8093 148.974L90.5932 148.098C91.9742 152.153 93.6324 156.11 95.5563 159.94C96.4387 161.743 97.4968 163.457 98.7154 165.055C99.2253 165.726 99.8164 166.332 100.475 166.859C100.877 167.203 101.363 167.436 101.883 167.533L103.036 167.586C103.485 167.586 103.916 167.586 104.382 167.542C105.273 167.479 106.157 167.338 107.022 167.122C108.759 166.658 110.411 165.922 111.915 164.941C113.488 163.899 114.925 162.666 116.192 161.271C116.86 160.567 117.488 159.827 118.075 159.055C118.365 158.67 118.638 158.276 118.911 157.881L119.298 157.303L119.606 156.804L126.479 160.456Z" fill="#FF8B7B"/>
<path d="M128.635 151.356C120.715 151.356 114.476 158.643 114.476 158.643L124.156 171.606C124.156 171.606 131.961 164.301 132.788 160.167C133.598 155.858 133.369 151.33 128.635 151.356Z" fill="#45A2F7"/>
<path d="M90.1532 149.972L93.6115 144.288L85.6037 144.489C85.6037 144.489 84.9701 148.247 87.0821 150.62L90.1532 149.972Z" fill="#FF8B7B"/>
<path d="M93.2947 137.614L87.3812 138.875L85.6037 144.489L93.6115 144.288L93.2947 137.614Z" fill="#FF8B7B"/>
<path d="M168.304 347.779L160.736 348.497L156.891 330.962L164.45 330.244L168.304 347.779Z" fill="#FF8B7B"/>
<path d="M236.916 325.076L231.187 330.139L217.557 318.568L223.285 313.506L236.916 325.076Z" fill="#FF8B7B"/>
<path d="M229.128 329.175L232.446 321.292C232.503 321.156 232.607 321.045 232.739 320.979C232.872 320.913 233.024 320.897 233.167 320.933L239.829 322.685C239.995 322.734 240.149 322.818 240.281 322.93C240.413 323.043 240.519 323.182 240.593 323.338C240.667 323.494 240.707 323.665 240.71 323.837C240.713 324.01 240.68 324.181 240.612 324.34C239.406 327.073 238.685 328.334 237.224 331.812C236.344 333.949 234.655 338.819 233.414 341.761C232.173 344.704 229.172 343.653 229.427 342.313C230.554 336.305 229.859 333.099 229.067 330.594C228.913 330.13 228.935 329.625 229.128 329.175Z" fill="#263238"/>
<path d="M159.786 346.22H168.876C169.04 346.221 169.199 346.276 169.33 346.376C169.46 346.475 169.554 346.614 169.598 346.772L171.578 353.927C171.626 354.097 171.633 354.275 171.6 354.448C171.566 354.62 171.493 354.783 171.385 354.922C171.278 355.062 171.139 355.175 170.98 355.251C170.821 355.328 170.646 355.366 170.469 355.364C167.292 355.303 165.735 355.119 161.74 355.119C159.284 355.119 152.94 355.373 149.525 355.373C146.111 355.373 145.513 352.036 146.886 351.729C153.045 350.371 156.565 348.497 158.501 346.719C158.849 346.395 159.309 346.216 159.786 346.22Z" fill="#263238"/>
<path opacity="0.2" d="M156.891 330.971L158.871 340.01H166.597L164.45 330.244L156.891 330.971Z" fill="black"/>
<path opacity="0.2" d="M223.285 313.506L217.557 318.577L224.588 324.533L230.316 319.471L223.285 313.506Z" fill="black"/>
<path d="M121.216 153.467C121.216 153.467 118.048 155.674 137.144 196.831L167.125 188.528C163.227 176.52 161.115 169.04 159.979 142.501C155.54 142.799 151.128 143.42 146.78 144.358C142.158 145.29 137.609 146.549 133.167 148.124C127.473 150.279 121.216 153.467 121.216 153.467Z" fill="#45A2F7"/>
<path d="M141.166 129.468C141.526 134.066 142.926 142.3 146.78 144.358C147.279 151.178 145.038 157.916 140.55 163.093C130.14 157.715 133.167 148.124 133.167 148.124C137.725 145.61 136.59 142.046 134.795 138.892L141.166 129.468Z" fill="#FF8B7B"/>
<path opacity="0.2" d="M142.758 138.218L137.54 136.466C137.61 137.495 137.873 138.502 138.314 139.436C139.194 141.143 142.107 141.783 144.184 141.573C143.586 140.51 143.108 139.385 142.758 138.218Z" fill="black"/>
<path d="M125.995 124.66C128.019 131.956 128.714 135.091 133.272 138.095C140.118 142.624 148.681 138.56 148.892 130.808C149.085 123.801 145.75 113.072 137.857 111.653C136.118 111.332 134.326 111.459 132.651 112.021C130.976 112.583 129.472 113.563 128.284 114.866C127.096 116.169 126.261 117.752 125.861 119.467C125.46 121.181 125.506 122.968 125.995 124.66Z" fill="#FF8B7B"/>
<path d="M136.924 110.462C136.335 115.419 132.621 132.464 125.608 132.358C119.835 127.348 122.686 117.863 124.472 114.026C126.259 110.19 136.924 110.462 136.924 110.462Z" fill="#263238"/>
<path d="M133.985 113.974C137.505 115.831 144.43 116.602 143.321 113.799C142.213 110.996 142.538 108.596 137.769 108.657C132.999 108.719 133.985 113.974 133.985 113.974Z" fill="#263238"/>
<path d="M126.259 131.57C126.716 132.961 127.706 134.115 129.013 134.785C130.773 135.66 131.996 134.189 131.82 132.358C131.662 130.712 130.562 128.277 128.67 128.172C128.255 128.155 127.842 128.242 127.469 128.425C127.097 128.608 126.776 128.881 126.536 129.219C126.297 129.556 126.146 129.949 126.097 130.359C126.049 130.77 126.104 131.186 126.259 131.57Z" fill="#FF8B7B"/>
<path d="M137.144 196.831C137.144 196.831 135.384 257.117 140.268 279.873C145.319 303.521 155.166 337.373 155.166 337.373L169.527 336.681C169.527 336.681 162.576 293.764 160.895 275.467C158.563 250.242 159.135 190.753 159.135 190.753L137.144 196.831Z" fill="#A6ACBE"/>
<path opacity="0.4" d="M137.144 196.831C137.144 196.831 135.384 257.117 140.268 279.873C145.319 303.521 155.166 337.373 155.166 337.373L169.527 336.681C169.527 336.681 162.576 293.764 160.895 275.467C158.563 250.242 159.135 190.753 159.135 190.753L137.144 196.831Z" fill="#FAFAFA"/>
<path opacity="0.2" d="M159.064 213.429C156.829 207.85 154.867 204.775 154.664 210.328C154.154 222.1 156.213 235.545 159.443 242.21C159.188 232.234 159.1 222.065 159.064 213.429Z" fill="black"/>
<path d="M170.53 337.373L154.163 338.162L152.227 332.206L169.967 330.831L170.53 337.373Z" fill="#263238"/>
<path d="M145.064 194.642C145.064 194.642 163.456 243.883 175.863 271.07C185.877 293.028 221.349 323.718 221.349 323.718L229.41 316.939C229.41 316.939 203.767 281.957 196.851 267.058C174.702 219.376 180.483 199.187 167.151 188.528L145.064 194.642Z" fill="#A6ACBE"/>
<path opacity="0.4" d="M145.064 194.642C145.064 194.642 163.456 243.883 175.863 271.07C185.877 293.028 221.349 323.718 221.349 323.718L229.41 316.939C229.41 316.939 203.767 281.957 196.851 267.058C174.702 219.376 180.483 199.187 167.151 188.528L145.064 194.642Z" fill="#FAFAFA"/>
<path d="M230.052 316.852L221.041 324.778L216.465 321.476L227.078 312.455L230.052 316.852Z" fill="#263238"/>
<path d="M167.09 186.654L169.184 188.948C169.351 189.124 169.184 189.404 168.815 189.5L137.373 198.215C137.1 198.285 136.845 198.215 136.774 198.058L135.763 195.43C135.692 195.255 135.877 195.027 136.176 194.948L166.535 186.54C166.63 186.51 166.73 186.505 166.827 186.525C166.924 186.545 167.015 186.589 167.09 186.654Z" fill="#A6ACBE"/>
<path d="M163.957 191.164L164.767 190.937C164.925 190.937 165.031 190.77 164.987 190.674L163.64 187.311C163.64 187.214 163.429 187.17 163.271 187.214L162.461 187.442C162.294 187.442 162.197 187.6 162.232 187.696L163.587 191.059C163.623 191.164 163.834 191.208 163.957 191.164Z" fill="#263238"/>
<path d="M139.74 197.873L140.55 197.646C140.717 197.646 140.814 197.479 140.778 197.383L139.423 194.02C139.38 193.966 139.321 193.927 139.255 193.91C139.188 193.892 139.117 193.897 139.054 193.923L138.244 194.151C138.086 194.151 137.98 194.309 138.024 194.405L139.37 197.768C139.414 197.873 139.573 197.917 139.74 197.873Z" fill="#263238"/>
<path d="M151.849 194.519L152.658 194.291C152.825 194.247 152.922 194.125 152.878 194.028L151.514 190.665C151.471 190.611 151.412 190.573 151.346 190.555C151.279 190.538 151.208 190.543 151.145 190.569L150.335 190.796C150.168 190.84 150.071 190.954 150.106 191.05L151.514 194.414C151.514 194.519 151.681 194.563 151.849 194.519Z" fill="#263238"/>
<path d="M137.698 124.371C137.83 124.966 138.253 125.387 138.649 125.308C139.045 125.229 139.265 124.668 139.133 124.064C139.001 123.46 138.587 123.048 138.191 123.127C137.795 123.206 137.575 123.766 137.698 124.371Z" fill="#263238"/>
<path d="M144.536 122.969C144.668 123.573 145.09 123.994 145.486 123.906C145.882 123.819 146.093 123.276 145.97 122.671C145.847 122.067 145.416 121.646 145.02 121.734C144.624 121.822 144.413 122.33 144.536 122.969Z" fill="#263238"/>
<path d="M144.853 121.769L146.234 121.042C146.234 121.042 145.715 122.33 144.853 121.769Z" fill="#263238"/>
<path d="M142.952 124.344C143.78 125.606 144.778 126.75 145.917 127.743C145.659 128.031 145.339 128.259 144.982 128.411C144.624 128.562 144.238 128.633 143.849 128.618L142.952 124.344Z" fill="#FF5652"/>
<path d="M142.283 131.377C142.315 131.359 142.339 131.332 142.354 131.299C142.368 131.265 142.371 131.229 142.362 131.194C142.35 131.147 142.32 131.107 142.28 131.081C142.239 131.055 142.19 131.045 142.142 131.053C141.392 131.223 140.612 131.214 139.866 131.027C139.119 130.84 138.428 130.48 137.848 129.976C137.814 129.943 137.768 129.925 137.721 129.925C137.673 129.925 137.627 129.943 137.593 129.976C137.576 129.992 137.562 130.012 137.552 130.034C137.543 130.056 137.538 130.079 137.538 130.103C137.538 130.127 137.543 130.15 137.552 130.172C137.562 130.194 137.576 130.214 137.593 130.23C138.215 130.777 138.961 131.167 139.767 131.366C140.572 131.566 141.414 131.57 142.222 131.377H142.283Z" fill="#263238"/>
<path d="M135.314 122.549C135.361 122.51 135.4 122.462 135.428 122.409C135.612 121.992 135.892 121.625 136.246 121.336C136.599 121.047 137.015 120.844 137.461 120.744C137.51 120.74 137.557 120.725 137.6 120.702C137.643 120.679 137.681 120.647 137.711 120.608C137.741 120.57 137.763 120.526 137.776 120.479C137.788 120.432 137.791 120.382 137.784 120.334C137.777 120.286 137.76 120.24 137.734 120.198C137.708 120.157 137.674 120.121 137.634 120.093C137.594 120.065 137.549 120.045 137.501 120.035C137.453 120.025 137.403 120.025 137.355 120.035C136.794 120.149 136.269 120.396 135.823 120.754C135.378 121.112 135.025 121.571 134.795 122.093C134.764 122.165 134.757 122.245 134.775 122.322C134.793 122.398 134.835 122.466 134.895 122.517C134.955 122.568 135.029 122.598 135.108 122.604C135.186 122.61 135.265 122.59 135.331 122.549H135.314Z" fill="#263238"/>
<path d="M147.114 119.089H147.167C147.201 119.056 147.227 119.016 147.245 118.973C147.264 118.929 147.273 118.882 147.273 118.835C147.273 118.788 147.264 118.741 147.245 118.698C147.227 118.654 147.201 118.614 147.167 118.581C146.766 118.168 146.272 117.858 145.725 117.677C145.178 117.495 144.595 117.448 144.026 117.539C143.979 117.549 143.934 117.567 143.895 117.594C143.855 117.621 143.822 117.655 143.795 117.695C143.769 117.735 143.751 117.78 143.742 117.827C143.734 117.873 143.734 117.921 143.744 117.968C143.754 118.015 143.773 118.059 143.8 118.098C143.827 118.137 143.861 118.171 143.901 118.197C143.941 118.223 143.986 118.241 144.033 118.25C144.08 118.259 144.128 118.258 144.175 118.248C144.629 118.186 145.091 118.233 145.523 118.385C145.955 118.537 146.344 118.791 146.657 119.124C146.725 119.172 146.808 119.195 146.892 119.188C146.975 119.182 147.054 119.147 147.114 119.089Z" fill="#263238"/>
<path d="M165.356 149.377C166.034 150.165 166.878 151.076 167.67 151.917C168.462 152.758 169.316 153.616 170.17 154.43C171.868 156.077 173.601 157.68 175.449 159.16C178.981 162.138 182.881 164.652 187.056 166.64C190.937 168.392 195.645 169.136 200.37 169.469C202.746 169.644 205.158 169.706 207.577 169.653C209.997 169.601 212.453 169.513 214.811 169.338L215.532 173.139C210.539 174.41 205.424 175.147 200.274 175.337C197.63 175.439 194.983 175.342 192.354 175.048C189.608 174.751 186.909 174.115 184.32 173.157C181.812 172.198 179.391 171.026 177.086 169.653C174.82 168.311 172.644 166.822 170.574 165.195C168.535 163.587 166.578 161.877 164.714 160.071C163.781 159.166 162.869 158.243 161.977 157.303C161.097 156.349 160.217 155.42 159.337 154.308L165.356 149.377Z" fill="#FF8B7B"/>
<path d="M213.826 173.516L221.402 172.333L215.145 166.403C215.145 166.403 212.171 168.803 212.18 171.974L213.826 173.516Z" fill="#FF8B7B"/>
<path d="M225.476 166.325L220.214 163.364L215.145 166.403L221.402 172.333L225.476 166.325Z" fill="#FF8B7B"/>
<path d="M159.979 142.501C163.235 142.571 169.721 151.873 169.721 151.873L160.393 163.391C160.393 163.391 154.955 155.806 155.113 151.593C155.324 147.204 156.257 142.413 159.979 142.501Z" fill="#45A2F7"/>
<path d="M227.676 333.318L227.412 333.187C227.316 333.135 227.234 333.06 227.175 332.968C227.117 332.876 227.083 332.77 227.078 332.661C227.078 331.689 229.339 330.13 229.595 329.955C229.624 329.937 229.658 329.927 229.692 329.927C229.727 329.927 229.761 329.937 229.79 329.955C229.82 329.973 229.843 329.999 229.858 330.03C229.874 330.061 229.88 330.096 229.876 330.13C229.709 331.137 229.304 332.88 228.415 333.283C228.301 333.339 228.177 333.371 228.049 333.377C227.922 333.383 227.795 333.363 227.676 333.318ZM229.436 330.507C228.556 331.155 227.43 332.136 227.447 332.652C227.448 332.701 227.462 332.748 227.489 332.788C227.515 332.828 227.553 332.86 227.597 332.88C227.694 332.946 227.805 332.988 227.922 333.002C228.038 333.016 228.156 333.001 228.266 332.959C228.741 332.74 229.172 331.829 229.436 330.55V330.507Z" fill="#A6ACBE"/>
<path d="M226.55 331.006C226.48 330.984 226.415 330.952 226.356 330.909C226.235 330.831 226.145 330.712 226.102 330.575C226.059 330.438 226.065 330.29 226.119 330.156C226.155 330.022 226.22 329.898 226.31 329.792C226.399 329.686 226.511 329.601 226.638 329.543C227.641 329.061 229.683 329.902 229.771 329.937C229.799 329.949 229.824 329.969 229.842 329.993C229.861 330.018 229.872 330.047 229.876 330.077C229.882 330.109 229.878 330.141 229.866 330.171C229.853 330.2 229.832 330.226 229.806 330.244C228.849 330.882 227.692 331.153 226.55 331.006ZM229.243 330.13C228.475 329.791 227.619 329.699 226.796 329.867C226.718 329.905 226.648 329.959 226.592 330.025C226.536 330.091 226.494 330.169 226.471 330.252C226.409 330.48 226.471 330.568 226.559 330.612C226.999 330.909 228.477 330.612 229.295 330.147L229.243 330.13Z" fill="#A6ACBE"/>
<path d="M155.756 347.717C155.138 347.759 154.523 347.609 153.996 347.288C153.856 347.187 153.741 347.056 153.66 346.904C153.579 346.752 153.534 346.584 153.529 346.412C153.518 346.317 153.534 346.221 153.574 346.135C153.614 346.048 153.678 345.974 153.758 345.922C154.585 345.37 157.683 346.798 158.29 347.052C158.324 347.068 158.353 347.094 158.372 347.127C158.391 347.16 158.399 347.198 158.395 347.235C158.391 347.273 158.375 347.308 158.35 347.336C158.325 347.365 158.292 347.384 158.255 347.393C157.435 347.584 156.597 347.693 155.756 347.717ZM154.312 346.149C154.187 346.141 154.062 346.169 153.952 346.228C153.926 346.249 153.906 346.276 153.893 346.307C153.881 346.337 153.877 346.371 153.881 346.403C153.886 346.52 153.917 346.634 153.972 346.737C154.026 346.84 154.104 346.93 154.198 346.999C154.735 347.402 155.958 347.454 157.621 347.157C156.576 346.654 155.461 346.315 154.312 346.149Z" fill="#A6ACBE"/>
<path d="M158.202 347.402H158.14C157.111 346.982 155.043 345.335 155.157 344.477C155.157 344.293 155.316 344.056 155.782 344.004C157.542 343.785 158.352 347.052 158.422 347.192C158.429 347.218 158.429 347.246 158.424 347.272C158.418 347.299 158.406 347.324 158.389 347.345C158.372 347.366 158.35 347.383 158.325 347.395C158.301 347.406 158.273 347.412 158.246 347.411L158.202 347.402ZM155.914 344.345H155.826C155.632 344.345 155.527 344.424 155.518 344.512C155.448 345.002 156.882 346.307 157.929 346.877C157.674 346.097 157.032 344.345 155.914 344.345Z" fill="#A6ACBE"/>
<path d="M138.024 123.197L139.388 122.479C139.388 122.479 138.878 123.766 138.024 123.197Z" fill="#263238"/>
<path d="M183.114 205.432C183.114 205.432 167.477 218.159 173.285 246.125C176.717 262.618 187.065 271 196.111 269.169C205.158 267.339 211.405 255.602 208.105 239.092C202.5 211.073 183.114 205.432 183.114 205.432Z" fill="#A6ACBE"/>
<path opacity="0.2" d="M183.114 205.432C183.114 205.432 167.477 218.159 173.285 246.125C176.717 262.618 187.065 271 196.111 269.169C205.158 267.339 211.405 255.602 208.105 239.092C202.5 211.073 183.114 205.432 183.114 205.432Z" fill="white"/>
<path d="M281.689 151.172C281.689 151.172 252.967 144.813 226.04 176.642C210.2 195.412 209.848 214.751 220.108 223.414C230.369 232.076 249.482 228.616 265.498 209.96C292.663 178.342 281.689 151.172 281.689 151.172Z" fill="#A6ACBE"/>
<path d="M243.982 24.8717C243.982 24.8717 237.567 26.6234 235.57 35.8288C234.399 41.2592 236.388 45.1569 239.362 45.805C242.337 46.4531 245.786 43.7467 247.001 38.3251C249.069 29.1459 243.982 24.8717 243.982 24.8717Z" fill="#A6ACBE"/>
<path d="M193.111 307.997C189.432 294.975 187.703 281.484 187.98 267.961C188.275 254.841 190.214 241.81 193.753 229.168C195.463 222.991 197.489 216.904 199.825 210.933C200.978 207.963 202.21 205.038 203.495 202.174C204.119 200.72 204.814 199.301 205.474 197.865L206.451 195.789L207.419 193.774C212.541 183.036 217.425 172.246 221.833 161.288C226.27 150.357 230.115 139.197 233.352 127.856C236.625 116.566 238.906 105.013 240.172 93.3297C241.486 81.6329 241.118 69.8096 239.081 58.216C236.965 46.4679 232.461 35.2734 225.846 25.3184C233.7 34.6968 239.548 45.5723 243.032 57.2789C246.495 69.1114 248.255 81.3731 248.259 93.6975C248.303 106.025 247.278 118.332 245.197 130.484C243.142 142.588 240.442 154.575 237.11 166.395C233.827 178.21 230.07 189.851 226.075 201.351L225.318 203.505L224.94 204.583L224.552 205.564C224.104 206.921 223.62 208.27 223.215 209.636C222.352 212.352 221.558 215.081 220.83 217.826C219.376 223.257 218.201 228.759 217.31 234.31C215.552 245.135 215.158 256.136 216.14 267.058C217.097 277.59 219.621 287.921 223.628 297.714L193.111 307.997Z" fill="#A6ACBE"/>
<path opacity="0.2" d="M193.111 307.997C189.432 294.975 187.703 281.484 187.98 267.961C188.275 254.841 190.214 241.81 193.753 229.168C195.463 222.991 197.489 216.904 199.825 210.933C200.978 207.963 202.21 205.038 203.495 202.174C204.119 200.72 204.814 199.301 205.474 197.865L206.451 195.789L207.419 193.774C212.541 183.036 217.425 172.246 221.833 161.288C226.27 150.357 230.115 139.197 233.352 127.856C236.625 116.566 238.906 105.013 240.172 93.3297C241.486 81.6329 241.118 69.8096 239.081 58.216C236.965 46.4679 232.461 35.2734 225.846 25.3184C233.7 34.6968 239.548 45.5723 243.032 57.2789C246.495 69.1114 248.255 81.3731 248.259 93.6975C248.303 106.025 247.278 118.332 245.197 130.484C243.142 142.588 240.442 154.575 237.11 166.395C233.827 178.21 230.07 189.851 226.075 201.351L225.318 203.505L224.94 204.583L224.552 205.564C224.104 206.921 223.62 208.27 223.215 209.636C222.352 212.352 221.558 215.081 220.83 217.826C219.376 223.257 218.201 228.759 217.31 234.31C215.552 245.135 215.158 256.136 216.14 267.058C217.097 277.59 219.621 287.921 223.628 297.714L193.111 307.997Z" fill="black"/>
<path d="M253.768 276.684L252.888 286.704L247.036 351.816C246.935 352.923 246.422 353.952 245.599 354.703C244.775 355.453 243.7 355.87 242.583 355.872H168.234C167.126 355.859 166.062 355.437 165.249 354.687C164.436 353.938 163.932 352.915 163.834 351.816L157.973 286.704L157.093 276.684H253.768Z" fill="url(#paint0_linear)"/>
<path d="M190.805 70.417C190.805 70.417 174.217 92.4013 191.139 127.673C201.118 148.457 217.618 156.226 229.04 150.848C240.462 145.47 244.88 127.848 235.068 106.985C218.392 71.6082 190.805 70.417 190.805 70.417Z" fill="#A6ACBE"/>
<path opacity="0.2" d="M190.805 70.417C190.805 70.417 174.217 92.4013 191.139 127.673C201.118 148.457 217.618 156.226 229.04 150.848C240.462 145.47 244.88 127.848 235.068 106.985C218.392 71.6082 190.805 70.417 190.805 70.417Z" fill="black"/>
<path opacity="0.2" d="M253.768 276.684L252.861 286.704H157.947L157.04 276.684H253.768Z" fill="black"/>
<path d="M259.523 264.326H151.294C150.133 264.326 149.191 265.263 149.191 266.419V279.601C149.191 280.757 150.133 281.694 151.294 281.694H259.523C260.684 281.694 261.626 280.757 261.626 279.601V266.419C261.626 265.263 260.684 264.326 259.523 264.326Z" fill="#A6ACBE"/>
<path d="M301.463 120.278C317.012 108.632 320.132 86.6457 308.432 71.1691C296.732 55.6926 274.642 52.5869 259.093 64.2324C243.544 75.8778 240.423 97.8646 252.123 113.341C263.824 128.818 285.913 131.923 301.463 120.278Z" fill="#232743"/>
<path opacity="0.1" d="M308.54 101.077C309.732 96.4127 309.727 91.5251 308.526 86.8632C307.324 82.2013 304.965 77.9147 301.665 74.3972C298.365 70.8797 294.229 68.2441 289.639 66.7325C285.048 65.2208 280.149 64.8817 275.393 65.7463C270.636 66.6109 266.174 68.6514 262.416 71.6803C258.658 74.7093 255.726 78.6296 253.888 83.081C252.049 87.5325 251.365 92.3723 251.896 97.1559C252.428 101.94 254.159 106.513 256.93 110.458C253.806 106.463 251.77 101.734 251.018 96.7278C250.266 91.7215 250.823 86.6068 252.636 81.8773C254.448 77.1478 257.455 72.9633 261.366 69.7276C265.277 66.4918 269.96 64.3142 274.963 63.4049C279.966 62.4956 285.12 62.8853 289.927 64.5364C294.735 66.1874 299.034 69.0442 302.409 72.8308C305.784 76.6174 308.121 81.206 309.195 86.1537C310.269 91.1015 310.044 96.2413 308.54 101.077Z" fill="black"/>
<path d="M282.999 94.9934L277.872 93.008L275.378 99.4455L280.504 101.432C282.279 102.12 284.283 101.235 284.97 99.4598C285.302 98.6048 285.278 97.6675 284.905 96.8205C284.531 95.9734 283.854 95.3245 282.999 94.9934Z" fill="white"/>
<path d="M286.866 90.4475C287.129 89.77 287.11 89.027 286.813 88.3553C286.517 87.6835 285.98 87.169 285.303 86.9067L280.897 85.1997L278.92 90.3029L283.367 92.026C284.764 92.5413 286.326 91.8409 286.866 90.4475Z" fill="white"/>
<path d="M286.538 77.7448C277.989 74.4323 268.338 78.6927 265.026 87.242C261.713 95.7914 265.974 105.442 274.523 108.754C283.072 112.067 292.723 107.806 296.035 99.257C299.348 90.7077 295.087 81.0573 286.538 77.7448ZM279.457 104.136L278.075 103.601L277.063 106.213L274.358 105.165L275.371 102.553L269.418 100.246L270.465 97.5421L272.674 98.3978L278.194 84.1516L275.985 83.296L277.033 80.5917L282.986 82.8982L283.998 80.2858L286.703 81.3336L285.69 83.946L286.351 84.2021C287.751 84.7443 288.857 85.8032 289.467 87.1837C290.076 88.5642 290.113 90.0954 289.571 91.4951C289.051 92.8359 288.071 93.8646 286.882 94.4729C287.145 94.836 287.373 95.2289 287.558 95.6493C288.245 97.2051 288.286 98.9305 287.675 100.508C286.41 103.774 282.723 105.402 279.457 104.136Z" fill="white"/>
<path d="M303.171 83.2542C300.501 77.2068 295.636 72.561 289.472 70.1727C283.308 67.7844 276.583 67.9394 270.535 70.6091C264.488 73.2791 259.842 78.1441 257.454 84.3081C255.065 90.4721 255.22 97.1973 257.89 103.245C260.56 109.292 265.425 113.938 271.589 116.326C277.753 118.715 284.478 118.56 290.526 115.89C296.573 113.22 301.219 108.355 303.607 102.191C305.995 96.0269 305.84 89.3017 303.171 83.2542ZM273.475 111.459C263.435 107.568 258.431 96.2347 262.321 86.1942C266.212 76.1537 277.545 71.1502 287.586 75.0405C297.626 78.9308 302.63 90.2643 298.739 100.305C294.849 110.345 283.515 115.349 273.475 111.459Z" fill="white"/>
</g>
<path d="M31.0429 360.862H370.02C370.288 360.862 370.545 360.545 370.735 359.982C370.925 359.419 371.031 358.655 371.031 357.859C371.031 357.064 370.924 356.301 370.734 355.739C370.545 355.177 370.288 354.862 370.02 354.862H31.0429C30.7753 354.862 30.5186 355.177 30.329 355.737C30.1394 356.298 30.0324 357.059 30.0314 357.853C30.0312 358.248 30.0572 358.639 30.1079 359.004C30.1586 359.369 30.2331 359.701 30.327 359.98C30.421 360.26 30.5326 360.481 30.6554 360.633C30.7782 360.784 30.9099 360.862 31.0429 360.862Z" fill="#003C99"/>
<g filter="url(#filter0_f)">
<ellipse cx="200.547" cy="369.006" rx="182.19" ry="8.14392" fill="#F0F0F0"/>
</g>
</g>
<defs>
<filter id="filter0_f" x="8.35754" y="350.862" width="384.379" height="36.2878" filterUnits="userSpaceOnUse" color-interpolation-filters="sRGB">
<feFlood flood-opacity="0" result="BackgroundImageFix"/>
<feBlend mode="normal" in="SourceGraphic" in2="BackgroundImageFix" result="shape"/>
<feGaussianBlur stdDeviation="5" result="effect1_foregroundBlur"/>
</filter>
<linearGradient id="paint0_linear" x1="165.738" y1="310.743" x2="258.296" y2="334.526" gradientUnits="userSpaceOnUse">
<stop stop-color="#F7931A"/>
<stop offset="1" stop-color="#F44336"/>
</linearGradient>
<clipPath id="clip0">
<rect width="401" height="412" fill="white" transform="translate(0.0157471 0.128418)"/>
</clipPath>
<clipPath id="clip1">
<rect width="230" height="331" fill="white" transform="translate(85.5157 24.8717)"/>
</clipPath>
</defs>
</svg>
