<svg width="402" height="413" viewBox="0 0 402 413" fill="none" xmlns="http://www.w3.org/2000/svg">
<g clip-path="url(#clip0)">
<path d="M306.565 121.131C265.143 131.655 254.38 122.964 246.907 116.637C158.161 31.7922 74.9927 59.3199 26.1075 141.202C-22.7778 223.084 15.0794 283.842 57.8468 314.562C100.614 345.282 104.552 334.685 223.338 325.07C342.124 315.456 356.234 283.724 373.588 241.199C403.55 167.78 347.987 110.607 306.565 121.131Z" fill="#F0F0F0"/>
<g clip-path="url(#clip1)">
<path d="M86.6 138.027C77.878 142.17 73.0806 149.988 75.1151 160.75C77.1496 171.513 68.634 173.331 73.8379 181.398C72.7897 174.579 81.1609 175.455 81.6272 166.259C82.0935 157.063 88.9069 155.65 87.6812 144.169C87.1344 139.013 86.6 138.027 86.6 138.027Z" fill="#263238"/>
<path d="M44.0135 240.962H98.0745V217.996H44.0135V240.962Z" fill="url(#paint0_linear)"/>
<path d="M98.0766 240.962H152.138V217.996H98.0766V240.962Z" fill="#E1DDE7"/>
<path d="M152.138 240.962H206.199V217.996H152.138V240.962Z" fill="#F2F2F2"/>
<path d="M43.5905 217.32H206.626V241.639H43.5905V217.32ZM205.774 218.671H44.4427V240.288H205.78L205.774 218.671Z" fill="url(#paint1_linear)"/>
<path d="M52.296 286.898H106.357V263.932H52.296V286.898Z" fill="url(#paint2_linear)"/>
<path d="M106.357 286.898H160.418V263.932H106.357V286.898Z" fill="#E1DDE7"/>
<path d="M160.418 286.898H214.479V263.932H160.418V286.898Z" fill="#F2F2F2"/>
<path d="M51.8709 263.256H214.9V287.573H51.8709V263.256ZM214.054 264.603H52.719V286.224H214.054V264.603Z" fill="url(#paint3_linear)"/>
<path d="M44.0135 309.866H98.0745V286.9H44.0135V309.866Z" fill="url(#paint4_linear)"/>
<path d="M98.0766 309.866H152.138V286.9H98.0766V309.866Z" fill="#E1DDE7"/>
<path d="M152.138 309.866H206.199V286.9H152.138V309.866Z" fill="#F2F2F2"/>
<path d="M43.5905 286.225H206.626V310.541H43.5905V286.225ZM205.774 287.573H44.4427V309.193H205.78L205.774 287.573Z" fill="url(#paint5_linear)"/>
<path d="M30.9646 332.834H85.0256V309.868H30.9646V332.834Z" fill="url(#paint6_linear)"/>
<path d="M85.0256 332.834H139.087V309.868H85.0256V332.834Z" fill="#E1DDE7"/>
<path d="M139.087 332.834H193.148V309.868H139.087V332.834Z" fill="#F2F2F2"/>
<path d="M30.5395 309.193H193.571V333.509H30.5395V309.193ZM192.723 310.541H31.3875V332.159H192.725L192.723 310.541Z" fill="url(#paint7_linear)"/>
<path d="M35.1037 263.93H89.1648V240.964H35.1037V263.93Z" fill="url(#paint8_linear)"/>
<path d="M89.1648 263.93H143.226V240.964H89.1648V263.93Z" fill="#E1DDE7"/>
<path d="M143.226 263.93H197.287V240.964H143.226V263.93Z" fill="#F2F2F2"/>
<path d="M34.6807 240.288H197.712V264.603H34.6807V240.288ZM196.864 241.639H35.5288V263.256H196.864V241.639Z" fill="url(#paint9_linear)"/>
<path d="M132.502 215.445L127.742 212.498L123.632 214.984L125.076 216.019L130.061 216.724C130.061 216.724 132.005 216.475 132.092 216.417C132.178 216.359 132.502 215.445 132.502 215.445Z" fill="#FFB3C5"/>
<path d="M132.502 215.445L133.707 216.224C133.829 216.301 133.922 216.415 133.973 216.549C134.024 216.683 134.03 216.83 133.991 216.968C133.952 217.106 133.869 217.228 133.755 217.314C133.641 217.401 133.502 217.448 133.359 217.449L124.226 217.492C124.072 217.493 123.923 217.432 123.813 217.323C123.703 217.214 123.641 217.065 123.64 216.91V214.99C129.723 216.906 131.819 216.305 132.502 215.445Z" fill="url(#paint10_linear)"/>
<path d="M152.781 215.445L148.025 212.498L143.913 214.984L145.357 216.019L150.342 216.724C150.342 216.724 152.288 216.475 152.375 216.417C152.462 216.359 152.781 215.445 152.781 215.445Z" fill="#FFB3C5"/>
<path d="M152.781 215.445L153.989 216.224C154.11 216.301 154.203 216.415 154.254 216.549C154.305 216.684 154.312 216.831 154.272 216.969C154.232 217.107 154.149 217.229 154.035 217.315C153.92 217.402 153.781 217.449 153.638 217.449L144.507 217.492C144.431 217.493 144.355 217.478 144.284 217.449C144.213 217.42 144.148 217.377 144.094 217.323C144.039 217.269 143.996 217.205 143.966 217.134C143.937 217.063 143.921 216.987 143.921 216.91L143.911 214.99C150.002 216.906 152.1 216.305 152.781 215.445Z" fill="url(#paint11_linear)"/>
<path d="M122.852 155.909C122.864 155.94 122.885 155.967 122.912 155.988C122.938 156.008 122.97 156.021 123.003 156.024C123.036 156.028 123.069 156.023 123.1 156.009C123.13 155.996 123.157 155.974 123.176 155.946C123.822 155.006 125.873 152.062 126.149 152.172C126.477 152.305 124.705 154.981 124.911 155.244C125.117 155.507 126.768 152.851 127.096 153.05C127.424 153.249 125.829 155.617 125.939 155.743C126.048 155.87 127.804 153.771 128.062 153.771C128.32 153.771 126.706 156.257 126.795 156.448C126.884 156.638 128.563 155.306 128.695 155.439C128.827 155.571 128.935 155.636 126.013 159.737C126.013 159.737 124.74 161.03 124.653 161.556L123.108 162.041L121.535 160.483C121.535 160.483 121.381 153.991 121.599 153.838C121.818 153.684 121.991 153.806 122.852 155.909Z" fill="#FFC0BB"/>
<path d="M117.312 194.787L123.291 215.302L130.517 213.272L128.109 196.047L120.638 190.901L117.312 194.787Z" fill="#472A6A"/>
<path d="M93.9745 152.69C93.9745 152.69 106.516 168.182 108.643 170.645L121.348 158.053C121.348 158.053 123.91 159.479 125.219 161.01C125.219 161.01 120.093 172.89 115.675 176.01L106.842 181.979L108.534 186.029L105.371 188.492L103.708 184.496L99.1537 174.367L94.8474 160.902L94.022 154.223L93.9745 152.69Z" fill="#232743"/>
<path d="M94.0282 154.223C94.0282 154.223 99.3188 162.872 100.408 166.211C101.498 169.551 100.627 169.824 101.118 173.876C101.609 177.928 105.313 188.765 105.313 188.765L99.1537 192.925C99.1537 192.925 95.8213 182.252 95.8213 181.813C95.8213 181.374 92.7262 161.832 92.7262 161.832L90.1635 154.55L94.0282 154.223Z" fill="#F2F2F2"/>
<path d="M99.7542 192.488C99.7542 192.488 110.333 182.958 118.513 181.046C126.692 179.134 148.69 212.446 148.69 212.446L143.43 216.247C143.43 216.247 124.401 202.506 120.801 196.376C120.801 196.376 105.342 216.844 100.167 217.337C94.9918 217.83 89.1442 216.73 82.2566 208.429C74.4425 198.997 99.7542 192.488 99.7542 192.488Z" fill="#656565"/>
<path d="M89.2308 145.791L86.8868 152.141C86.8868 152.141 88.5829 156.021 94.2676 154.585C94.2676 154.585 93.6754 153.23 94.6349 150.521C95.615 147.751 89.2308 145.791 89.2308 145.791Z" fill="#FFB3C5"/>
<path opacity="0.6" d="M89.2308 145.791L88.131 148.758C88.6407 150.974 90.4998 152.539 94.0922 153.137C94.1382 152.242 94.3212 151.36 94.6349 150.521C95.615 147.751 89.2308 145.791 89.2308 145.791Z" fill="#EA94AD"/>
<path d="M121.729 190.161C121.831 190.684 121.881 191.216 121.878 191.748C121.875 192.281 121.833 192.813 121.752 193.339C121.668 193.866 121.553 194.388 121.409 194.901C121.267 195.416 121.09 195.921 120.879 196.411L120.755 196.304C121.042 196.108 121.313 195.89 121.566 195.653C121.824 195.419 122.076 195.175 122.315 194.92C122.555 194.665 122.78 194.396 123 194.124C123.221 193.853 123.43 193.567 123.638 193.283C123.456 193.586 123.265 193.882 123.06 194.168C122.856 194.454 122.633 194.731 122.404 194.997C122.175 195.262 121.932 195.523 121.674 195.767C121.415 196.012 121.139 196.239 120.848 196.445L120.611 196.606L120.724 196.337C120.922 195.85 121.094 195.353 121.238 194.847C121.387 194.342 121.506 193.829 121.597 193.31C121.692 192.791 121.752 192.267 121.777 191.74C121.804 191.213 121.788 190.685 121.729 190.161Z" fill="#472A6A"/>
<path d="M102.269 141.559C101.776 142.595 102.038 143.74 102.855 144.138C103.673 144.536 104.739 144.024 105.235 142.999C105.73 141.973 105.466 140.817 104.649 140.42C103.831 140.022 102.765 140.531 102.269 141.559Z" fill="#EA94AD"/>
<path d="M101.58 147.707C101.873 147.265 102.123 146.796 102.329 146.307C102.873 145.029 103.252 143.686 103.456 142.311C103.499 142.044 103.557 141.778 103.621 141.515C103.908 140.326 103.945 139.09 103.73 137.885C103.516 136.68 103.054 135.534 102.374 134.518C101.694 133.502 100.812 132.639 99.7819 131.984C98.7522 131.329 97.5981 130.896 96.3929 130.713C95.1877 130.53 93.9577 130.601 92.7811 130.921C91.6045 131.24 90.507 131.802 89.5583 132.571C88.6096 133.339 87.8305 134.297 87.2704 135.384C86.7103 136.471 86.3815 137.663 86.3049 138.884C86.0609 138.715 85.7807 138.605 85.4869 138.564C85.193 138.523 84.8937 138.552 84.6129 138.648C83.542 139.048 83.0798 140.463 83.5812 141.805C84.0826 143.148 85.3537 143.914 86.4225 143.512C86.5701 143.458 86.7091 143.383 86.8352 143.289C87.0003 147.629 90.31 151.182 94.5358 151.38C96.5358 151.471 98.4953 150.794 100.016 149.487C100.126 149.406 100.23 149.319 100.33 149.226C100.81 148.776 101.23 148.265 101.58 147.707Z" fill="#FFB3C5"/>
<path d="M97.0594 139.477C97.0408 139.976 97.0243 140.471 97.0387 140.958C97.0446 141.2 97.0652 141.44 97.1006 141.679C97.1294 141.904 97.1994 142.121 97.307 142.319L97.3503 142.379C97.365 142.404 97.3816 142.428 97.3998 142.45C97.4469 142.504 97.4877 142.563 97.5216 142.626C97.5604 142.69 97.5896 142.76 97.6082 142.833C97.6326 142.904 97.6458 142.978 97.6474 143.053C97.6496 143.198 97.6194 143.342 97.559 143.473C97.4987 143.605 97.4098 143.722 97.2987 143.815C97.0979 143.991 96.8534 144.11 96.591 144.159C96.3413 144.204 96.0854 144.204 95.8358 144.159C96.0781 144.137 96.3166 144.084 96.5456 144.001C96.7633 143.924 96.9603 143.797 97.1213 143.631C97.1946 143.558 97.2517 143.47 97.2891 143.373C97.3264 143.276 97.343 143.173 97.3379 143.069C97.334 143.02 97.3236 142.972 97.307 142.926C97.2936 142.878 97.2727 142.832 97.2451 142.79C97.2193 142.744 97.1888 142.702 97.1543 142.663C97.1213 142.622 97.0676 142.549 97.0284 142.493C96.9011 142.254 96.8226 141.992 96.7973 141.723C96.7723 141.468 96.7688 141.212 96.787 140.956C96.8193 140.454 96.9107 139.958 97.0594 139.477Z" fill="#EA94AD"/>
<path d="M94.1396 140.15C94.1325 140.302 94.0806 140.449 93.9904 140.572C93.9002 140.694 93.7758 140.788 93.633 140.839C93.4902 140.891 93.3353 140.899 93.1879 140.862C93.0405 140.825 92.9074 140.746 92.8052 140.633C92.703 140.52 92.6364 140.379 92.6138 140.229C92.5912 140.078 92.6137 139.924 92.6784 139.786C92.743 139.648 92.847 139.532 92.977 139.454C93.1071 139.375 93.2575 139.337 93.4092 139.344C93.5099 139.349 93.6088 139.373 93.7001 139.416C93.7914 139.459 93.8733 139.52 93.9412 139.595C94.0091 139.67 94.0615 139.757 94.0956 139.853C94.1296 139.948 94.1446 140.049 94.1396 140.15Z" fill="#472A6A"/>
<path d="M100.701 140.892C100.697 141.045 100.647 141.193 100.558 141.317C100.469 141.442 100.345 141.537 100.203 141.59C100.06 141.644 99.9046 141.653 99.7564 141.618C99.6082 141.583 99.4738 141.504 99.3703 141.391C99.2669 141.279 99.1991 141.138 99.1756 140.987C99.1521 140.836 99.174 140.681 99.2384 140.543C99.3028 140.404 99.4068 140.288 99.5372 140.209C99.6677 140.13 99.8186 140.091 99.9708 140.099C100.172 140.107 100.362 140.195 100.499 140.344C100.636 140.493 100.709 140.69 100.701 140.892Z" fill="#472A6A"/>
<g style="mix-blend-mode:multiply" opacity="0.3">
<path d="M93.7909 145.998C94.1493 145.902 94.5242 145.885 94.8899 145.948C95.2555 146.01 95.6035 146.151 95.91 146.361C95.91 146.361 97.0511 145.702 97.9053 146.404C97.7558 146.882 97.4436 147.29 97.0236 147.559C96.6037 147.828 96.1027 147.94 95.6088 147.875C95.1242 147.855 94.6657 147.649 94.3275 147.3C93.9894 146.951 93.7974 146.485 93.7909 145.998Z" fill="#EA94AD"/>
</g>
<path d="M92.8541 145.367C93.2551 145.714 93.6973 146.009 94.1706 146.247C94.6389 146.481 95.1421 146.635 95.6603 146.705C96.178 146.768 96.7029 146.729 97.2058 146.591C97.7151 146.441 98.2012 146.221 98.6502 145.936C98.445 146.11 98.2255 146.266 97.994 146.403C97.7596 146.538 97.513 146.651 97.2574 146.74C96.9981 146.826 96.7304 146.885 96.4589 146.914C96.1845 146.943 95.9079 146.943 95.6335 146.914C95.0922 146.842 94.5701 146.665 94.0963 146.392C93.6258 146.126 93.2053 145.779 92.8541 145.367Z" fill="#EA94AD"/>
<path d="M95.1033 138.41C94.7362 138.293 94.361 138.203 93.9808 138.141C93.6286 138.084 93.2704 138.076 92.916 138.116C92.5608 138.156 92.2132 138.248 91.8843 138.389C91.7069 138.445 91.5542 138.551 91.3747 138.626C91.1952 138.7 91.0425 138.82 90.8485 138.907C90.9448 138.725 91.0589 138.553 91.189 138.394C91.6122 137.906 92.2001 137.592 92.8397 137.513C93.2675 137.463 93.7009 137.522 94.1004 137.683C94.4933 137.831 94.8395 138.082 95.1033 138.41Z" fill="#472A6A"/>
<path d="M98.4831 138.793C98.803 138.524 99.188 138.344 99.5994 138.271C100.023 138.193 100.46 138.22 100.87 138.352C101.283 138.482 101.654 138.717 101.948 139.036C102.091 139.188 102.217 139.356 102.321 139.537C102.416 139.717 102.495 139.905 102.556 140.099C102.383 139.978 102.247 139.84 102.094 139.721C101.941 139.603 101.801 139.479 101.638 139.39C101.345 139.189 101.025 139.031 100.687 138.922C100.347 138.813 99.9933 138.751 99.6365 138.737C99.2512 138.728 98.8657 138.747 98.4831 138.793Z" fill="#472A6A"/>
<path d="M148.871 187.02C159.388 176.462 159.388 159.343 148.871 148.785C138.355 138.226 121.304 138.226 110.787 148.785C100.271 159.343 100.271 176.462 110.787 187.02C121.304 197.579 138.355 197.579 148.871 187.02Z" fill="url(#paint12_linear)"/>
<path d="M154.009 169.233C154.742 155.823 144.508 144.356 131.152 143.621C117.795 142.885 106.374 153.159 105.641 166.569C104.909 179.979 115.142 191.445 128.498 192.181C141.855 192.917 153.276 182.642 154.009 169.233Z" fill="url(#paint13_linear)"/>
<g clip-path="url(#clip2)">
<path d="M131.251 167.642L128.585 167.642V170.99H131.251C132.174 170.99 132.925 170.239 132.925 169.316C132.925 168.871 132.75 168.451 132.433 168.134C132.115 167.816 131.696 167.642 131.251 167.642Z" fill="white"/>
<path d="M132.203 164.909C132.203 164.557 132.065 164.224 131.813 163.972C131.561 163.72 131.228 163.582 130.876 163.582H128.585V166.235H130.898C131.62 166.224 132.203 165.633 132.203 164.909Z" fill="white"/>
<path d="M129.829 159.223C125.384 159.223 121.767 162.84 121.767 167.286C121.767 171.731 125.384 175.348 129.829 175.348C134.275 175.348 137.892 171.731 137.892 167.286C137.892 162.84 134.275 159.223 129.829 159.223ZM131.251 172.396H130.533V173.754H129.126V172.396H126.031V170.99H127.179V163.582H126.031V162.175H129.126V160.817H130.533V162.175H130.876C131.604 162.175 132.29 162.46 132.807 162.978C133.325 163.495 133.61 164.181 133.609 164.909C133.609 165.606 133.347 166.243 132.916 166.726C133.098 166.844 133.27 166.982 133.427 167.14C134.01 167.723 134.331 168.495 134.331 169.316C134.331 171.014 132.95 172.396 131.251 172.396Z" fill="white"/>
<path d="M138.315 158.8C136.048 156.534 133.035 155.286 129.829 155.286C126.624 155.286 123.611 156.534 121.344 158.8C119.078 161.067 117.829 164.08 117.829 167.286C117.829 170.491 119.078 173.504 121.344 175.771C123.611 178.037 126.624 179.286 129.829 179.286C133.035 179.286 136.048 178.037 138.315 175.771C140.581 173.504 141.829 170.491 141.829 167.286C141.829 164.08 140.581 161.067 138.315 158.8ZM129.829 176.754C124.608 176.754 120.361 172.507 120.361 167.286C120.361 162.065 124.608 157.817 129.829 157.817C135.051 157.817 139.298 162.065 139.298 167.286C139.298 172.507 135.051 176.754 129.829 176.754Z" fill="white"/>
</g>
<path d="M138.307 189.016C134.147 190.699 129.584 191.106 125.194 190.186C120.804 189.265 116.785 187.058 113.644 183.844C110.503 180.63 108.382 176.554 107.549 172.129C106.716 167.705 107.209 163.132 108.965 158.989C110.721 154.846 113.661 151.319 117.413 148.853C121.166 146.387 125.562 145.094 130.047 145.138C134.531 145.181 138.902 146.558 142.607 149.095C146.312 151.632 149.184 155.215 150.86 159.392C153.102 164.992 153.039 171.256 150.686 176.81C148.332 182.364 143.88 186.754 138.307 189.016ZM121.663 147.556C117.656 149.178 114.218 151.955 111.784 155.538C109.349 159.121 108.027 163.348 107.986 167.686C107.944 172.023 109.184 176.275 111.55 179.904C113.915 183.534 117.299 186.377 121.274 188.076C125.249 189.774 129.636 190.251 133.881 189.446C138.126 188.641 142.038 186.591 145.123 183.554C148.207 180.517 150.325 176.63 151.209 172.384C152.093 168.139 151.703 163.725 150.089 159.702C147.918 154.312 143.706 150.006 138.377 147.729C133.048 145.452 127.038 145.39 121.663 147.556Z" fill="#F2F2F2"/>
<path d="M120.289 172.84C120.276 172.875 120.273 172.912 120.279 172.948C120.286 172.984 120.301 173.018 120.325 173.046C120.348 173.074 120.379 173.095 120.413 173.107C120.447 173.12 120.484 173.123 120.52 173.116C121.746 172.855 125.611 172.062 125.747 172.36C125.91 172.714 122.474 173.508 122.433 173.868C122.392 174.228 125.722 173.369 125.835 173.775C125.949 174.181 122.885 174.864 122.872 175.053C122.86 175.241 125.866 174.904 126.075 175.103C126.283 175.302 123.122 176.056 123.042 176.279C122.961 176.503 125.311 176.712 125.324 176.917C125.336 177.123 125.367 177.259 119.93 178.312L117.772 178.631L115.867 177.941L115.785 175.496C115.785 175.496 120.564 170.187 120.852 170.23C121.141 170.274 121.201 170.51 120.289 172.84Z" fill="#FFB3C5"/>
<path d="M87.0498 151.078C87.0498 151.078 76.252 164.129 77.7253 187.124C79.1986 210.119 79.442 210.281 79.442 210.281C79.442 210.281 86.0676 209.568 90.9744 205.628C95.8811 201.688 101.882 198.999 101.882 198.999L97.9012 186.024C97.9012 186.024 103.08 186.188 106.842 184.601C110.603 183.014 118.457 178.801 118.457 178.801C118.457 178.801 117.803 174.914 116.986 173.709C116.986 173.709 107.007 176.775 101.991 176.83C101.991 176.833 96.1556 158.766 87.0498 151.078Z" fill="#232743"/>
<path d="M87.8257 155.263C89.4623 156.699 90.9946 158.251 92.4105 159.907C93.8338 161.559 95.1568 163.296 96.3723 165.107L96.8241 165.789C96.9748 166.016 97.1254 166.242 97.2636 166.478L98.1117 167.879C98.2561 168.109 98.3799 168.353 98.512 168.594L98.902 169.312L99.2899 170.033C99.4178 170.274 99.5272 170.524 99.6448 170.771L100.344 172.25L100.963 173.766L101.263 174.527L101.518 175.304C101.69 175.821 101.858 176.34 102.022 176.859C101.816 176.352 101.622 175.846 101.428 175.339L101.135 174.578L100.796 173.837L100.13 172.352L99.3931 170.901C99.2693 170.661 99.1537 170.415 99.0217 170.178L98.6234 169.47L98.2231 168.761C98.089 168.525 97.9631 168.285 97.8104 168.059L96.9583 166.673C96.82 166.439 96.6694 166.215 96.5167 165.99L96.0648 165.314C94.8598 163.519 93.5681 161.779 92.1897 160.094L91.1436 158.851C90.7846 158.436 90.4317 158.022 90.0665 157.628C89.3484 156.812 88.5994 156.027 87.8257 155.263Z" fill="#5C407B"/>
<path d="M83.1644 164.378C84.0537 166.385 85.0029 168.364 85.983 170.323C86.4762 171.301 86.9796 172.275 87.5037 173.238C88.0278 174.202 88.5561 175.157 89.1173 176.097C89.6785 177.038 90.248 177.962 90.8567 178.879C91.1539 179.337 91.4758 179.78 91.7832 180.23C92.0907 180.68 92.4291 181.11 92.7695 181.537C93.4397 182.399 94.1663 183.215 94.9443 183.98C95.7186 184.753 96.5989 185.41 97.5587 185.933C96.5594 185.47 95.6366 184.856 94.8226 184.112C94.0075 183.373 93.2488 182.573 92.5529 181.719C91.8431 180.874 91.1972 179.981 90.5741 179.074C89.9509 178.167 89.369 177.232 88.8078 176.286C87.6894 174.39 86.6722 172.437 85.7313 170.45C84.7904 168.463 83.9217 166.439 83.1644 164.378Z" fill="#5C407B"/>
<path d="M104.104 131.421C102.841 128.661 100.39 127.105 98.2602 126.241C95.6503 125.164 92.7327 125.11 90.0851 126.09C82.6568 128.895 84.1321 137.13 84.4809 138.669C84.9768 138.568 85.4927 138.658 85.9252 138.922C86.1464 139.036 86.3541 139.175 86.5443 139.336C87.9886 138.893 88.4302 136.481 89.1792 135.319C90.1944 133.743 94.1314 135.245 95.8357 134.126C97.5401 133.007 97.8228 131.847 97.8228 131.847C104.366 132.896 103.869 140.306 103.869 140.306C104.151 140.241 104.807 139.177 104.807 139.177C104.807 139.177 106.427 136.494 104.104 131.421Z" fill="#263238"/>
<path d="M398.739 333.509H6.26155C5.01256 333.509 4.00006 334.526 4.00006 335.78V336.12C4.00006 337.374 5.01256 338.39 6.26155 338.39H398.739C399.988 338.39 401 337.374 401 336.12V335.78C401 334.526 399.988 333.509 398.739 333.509Z" fill="#232743"/>
<path d="M248.486 205.054C248.818 207.076 247.51 207.528 247.853 209.572L244.757 208.974C240.573 210.324 235.732 212.122 236.504 211.373C237.447 210.25 240.263 208.911 237.313 209.547C231.696 210.718 236.861 208.878 238.113 207.981C234.88 208.307 231.164 209.115 237.657 206.658C239.32 205.647 232.499 207.349 233.446 206.562C239.475 203.699 241.353 205.421 238.15 202.614C234.372 199.117 246.173 205.234 248.486 205.054Z" fill="#F7B2AD"/>
<path d="M305.91 208.657C305.91 208.657 309.045 201.893 293.324 200.992C287.662 200.669 276.451 206.171 273.585 206.185C253.878 204.112 245.418 203.239 245.418 203.239C245.418 203.239 244.107 206.6 244.658 209.983C244.658 209.983 268.293 215.843 274.165 216.471C289.702 218.13 304.662 214.899 305.91 208.657Z" fill="#E1DDE7"/>
<path d="M334.557 325.778C335.176 327.63 336.993 330.128 335.576 330.379C326.266 334.137 323.22 337.008 329.745 327.829C329.741 327.829 332.355 328.366 334.557 325.778Z" fill="#472A6A"/>
<path d="M254.272 326.768C253.12 328.341 252.146 331.284 251.125 330.267C242.684 324.815 238.584 323.988 249.821 324.017C249.821 324.017 250.9 326.466 254.272 326.768Z" fill="#472A6A"/>
<path d="M287.746 242.372C253.017 292.665 263.592 275.197 249.596 324.021C249.596 324.021 251.055 327.185 254.272 326.768C254.272 326.768 271.472 290.968 273.22 287.66C274.968 284.352 299.838 265.39 299.838 265.39L287.746 242.372Z" fill="#232743"/>
<path d="M285.351 249.54C306.119 307.075 298.045 288.311 329.615 328.017C329.615 328.017 333.028 328.653 334.552 325.778C334.552 325.778 315.414 290.975 313.741 287.635C312.068 284.296 311.059 252.948 311.059 252.948L285.351 249.54Z" fill="#232743"/>
<path d="M298.082 197.136C298.082 197.136 287.321 195.498 284.224 200.741C281.127 205.984 282.315 253.317 282.315 253.317L289.671 253.236C298.86 199.446 298.839 203.188 298.082 197.136Z" fill="#787C8A"/>
<path d="M322.775 223.98L304.98 200.505L309.457 209.987L321.503 225.7L322.775 223.98Z" fill="#263238"/>
<path d="M285.848 198.978C285.848 198.978 283.182 198.978 281.356 201.972C279.53 204.965 278.923 242.482 279.185 253.661C279.185 253.661 281.474 255.318 283.725 255.146C283.725 255.146 282.088 207.283 285.848 198.978Z" fill="#E1DDE7"/>
<path d="M288.902 189.621L283.591 193.184L286.543 200.787C286.543 200.787 292.222 202.237 293.835 197.354L288.902 189.621Z" fill="#FFB3C5"/>
<path d="M285.002 196.799L283.591 193.184L288.896 189.621L290.606 192.303C290.084 194.006 288.687 196.239 285.002 196.799Z" fill="#EA94AD"/>
<path d="M300.265 197.207C292.193 194.771 288.281 205.141 287.996 218.081C287.856 232.269 288.105 254.562 288.105 254.579C288.105 254.595 304.326 256.134 312.041 253.284C311.915 250.835 315.986 201.951 300.265 197.207Z" fill="#F2F2F2"/>
<path d="M289.273 211.663C288.873 212.676 288.151 213.32 288.151 214.797C290.237 215.211 296.429 215.945 301.115 215.056C301.115 215.056 296.206 213.473 289.273 211.663Z" fill="#E1DDE7"/>
<path d="M282.478 200.557C282.478 200.557 275.376 213.411 293.945 244.313L291.881 246.221C291.881 246.221 276.864 221.54 279.295 205.309C279.464 204.184 280.017 201.112 282.478 200.557Z" fill="#263238"/>
<path d="M276.369 186.461C277.287 189.076 274.411 190.018 273.389 187.686C272.479 185.071 275.353 184.129 276.369 186.461Z" fill="#EA94AD"/>
<path d="M276.369 191.568C268.245 173.213 291.064 170.023 291.805 183.886C296.394 182.252 294.504 190.393 291.035 188.148C290.053 196.343 280.138 198.104 276.369 191.568Z" fill="#FFB3C5"/>
<path d="M281.278 183.81C281.457 186.178 278.929 188.469 282.194 188.452C279.29 187.539 282.408 187.066 281.278 183.81Z" fill="#EA94AD"/>
<path d="M279.903 183.41C278.713 182.289 276.478 182.643 275.849 184.446C276.395 183.963 277.047 183.618 277.752 183.438C278.457 183.258 279.194 183.248 279.903 183.41Z" fill="#5C407B"/>
<path d="M335.033 248.739C300.839 271.702 311.114 272.829 293.893 249.542L325.837 227.107C335.704 241.774 339.998 244.457 335.033 248.739Z" fill="#263238"/>
<path d="M328.317 231.718C328.317 231.718 301.829 250.319 297.847 253.114C295.56 254.605 295.558 253.878 292.197 249.078C288.501 244.237 289.814 246.818 319.867 224.958C323.02 222.862 323.554 221.325 326.171 225.623C328.125 228.665 330.157 230.131 328.317 231.718Z" fill="#656565"/>
<path d="M318.438 236.998L306.787 245.18L308.321 247.382L319.972 239.2L318.438 236.998Z" fill="#F2F2F2"/>
<path d="M296.281 175.544C296.625 175.402 296.937 175.191 297.197 174.922C296.204 175.337 295.08 175.563 293.856 175.13C293.726 174.065 292.961 169.441 289.504 169.814C289.504 169.814 283.58 164.162 278.515 169.839C278 169.484 277.584 169.002 277.308 168.44C277.032 167.878 276.905 167.254 276.938 166.628C276.526 167.831 276.953 169.284 278.071 170.205C277.32 169.977 272.589 168.755 272.31 174.131C271.67 174.373 267.771 176.922 273.93 180.99C272.622 181.083 271.068 180.636 269.755 179.849C270.287 180.527 270.999 181.04 271.809 181.329C272.619 181.618 273.494 181.67 274.332 181.481C273.371 181.995 272.17 182.225 270.907 182.264C271.663 182.546 272.481 182.621 273.275 182.48C274.07 182.34 274.813 181.989 275.428 181.465C276.53 181.651 277.993 181.558 279.555 180.508C279.555 180.508 281.311 182.277 285.029 180.251C285.029 180.251 285.997 181.701 289.818 180.085L290.437 185.167C290.437 185.167 291.898 183.172 293.532 183.727C293.532 183.727 295.327 178.469 294.357 176.072C294.957 176.383 295.646 176.47 296.303 176.317C295.573 176.224 294.872 175.968 294.252 175.569C294.91 175.799 295.628 175.791 296.281 175.544Z" fill="#5C407B"/>
<path d="M283.877 184.804C283.881 184.946 283.927 185.084 284.009 185.2C284.091 185.317 284.205 185.406 284.338 185.456C284.47 185.507 284.614 185.518 284.753 185.486C284.891 185.454 285.017 185.382 285.114 185.278C285.211 185.175 285.276 185.045 285.299 184.904C285.323 184.764 285.304 184.62 285.246 184.49C285.188 184.36 285.093 184.251 284.972 184.175C284.852 184.1 284.712 184.062 284.571 184.067C284.477 184.069 284.385 184.09 284.299 184.129C284.213 184.167 284.136 184.223 284.072 184.291C284.007 184.36 283.957 184.44 283.924 184.528C283.89 184.616 283.875 184.71 283.877 184.804Z" fill="#472A6A"/>
<path d="M277.745 185.388C277.749 185.531 277.794 185.668 277.876 185.785C277.958 185.901 278.073 185.99 278.205 186.041C278.338 186.092 278.482 186.102 278.62 186.07C278.758 186.038 278.884 185.966 278.981 185.863C279.079 185.759 279.143 185.629 279.167 185.489C279.19 185.348 279.172 185.204 279.114 185.074C279.056 184.944 278.96 184.835 278.84 184.76C278.72 184.684 278.58 184.646 278.438 184.651C278.249 184.657 278.07 184.738 277.941 184.876C277.811 185.014 277.74 185.198 277.745 185.388Z" fill="#472A6A"/>
<path d="M283.005 183.172C283.349 183.069 283.701 182.991 284.057 182.94C284.387 182.894 284.722 182.894 285.051 182.94C285.38 182.983 285.7 183.075 286.003 183.211C286.164 183.279 286.322 183.355 286.475 183.439C286.634 183.522 286.783 183.625 286.962 183.708C286.874 183.538 286.77 183.377 286.653 183.226C286.527 183.076 286.383 182.943 286.226 182.828C285.903 182.586 285.523 182.432 285.124 182.382C284.726 182.329 284.321 182.375 283.946 182.517C283.58 182.649 283.256 182.874 283.005 183.172Z" fill="#5C407B"/>
<path d="M279.792 190.752C280.235 191.91 281.531 192.627 282.908 192.409C284.284 192.192 285.283 191.09 285.336 189.853L279.792 190.752Z" fill="white"/>
<path d="M226.279 216.738C239.648 216.269 250.106 205.009 249.64 191.588C249.173 178.166 237.957 167.666 224.589 168.134C211.221 168.603 200.762 179.863 201.229 193.285C201.696 206.706 212.911 217.207 226.279 216.738Z" fill="url(#paint14_linear)"/>
<path d="M244.476 211.554C254.993 200.995 254.993 183.877 244.476 173.318C233.96 162.76 216.909 162.76 206.392 173.318C195.876 183.877 195.876 200.995 206.392 211.554C216.909 222.112 233.96 222.112 244.476 211.554Z" fill="url(#paint15_linear)"/>
<g clip-path="url(#clip3)">
<path d="M217.4 192.986L224.9 202.361L232.4 192.986L224.9 196.111L217.4 192.986ZM221.426 196.017L224.419 197.264L224.9 197.465V200.36L221.426 196.017Z" fill="white"/>
<path d="M232.4 192.361L224.9 182.361L217.4 192.361L224.9 194.861L232.4 192.361ZM224.9 191.111L219.445 191.717L224.9 184.444V191.111Z" fill="white"/>
</g>
<path d="M233.91 213.55C229.751 215.234 225.188 215.641 220.798 214.72C216.408 213.8 212.388 211.593 209.248 208.379C206.107 205.165 203.986 201.088 203.153 196.664C202.32 192.24 202.813 187.667 204.568 183.524C206.324 179.381 209.264 175.853 213.017 173.388C216.769 170.922 221.166 169.629 225.65 169.672C230.135 169.715 234.506 171.092 238.211 173.63C241.915 176.167 244.788 179.75 246.464 183.926C248.706 189.527 248.643 195.791 246.289 201.345C243.936 206.899 239.484 211.288 233.91 213.55ZM217.269 172.097C213.263 173.719 209.825 176.496 207.391 180.079C204.957 183.662 203.636 187.889 203.594 192.226C203.553 196.562 204.794 200.814 207.159 204.443C209.524 208.072 212.908 210.915 216.883 212.613C220.858 214.311 225.245 214.787 229.49 213.982C233.734 213.177 237.646 211.126 240.729 208.089C243.813 205.052 245.931 201.165 246.814 196.92C247.697 192.675 247.307 188.262 245.692 184.239C243.52 178.85 239.309 174.546 233.981 172.27C228.652 169.993 222.643 169.932 217.269 172.097Z" fill="#F2F2F2"/>
<path d="M248.259 195.618C248.16 197.665 246.786 197.828 246.691 199.902L243.788 198.659C239.413 199.094 234.296 199.825 235.212 199.254C236.37 198.357 239.403 197.644 236.386 197.642C230.65 197.596 236.085 196.892 237.498 196.281C234.269 195.914 230.466 195.914 237.331 194.891C239.168 194.255 232.148 194.476 233.233 193.905C239.729 192.384 241.202 194.464 238.662 191.042C235.72 186.832 245.962 195.313 248.259 195.618Z" fill="#FFB3C5"/>
<path d="M305.972 212.897C305.972 212.897 309.086 201.261 298.389 200.393C291.58 199.842 278.145 199.782 278.145 199.782L245.934 193.608C245.934 193.608 243.87 196.985 244.18 199.85C244.18 199.85 296.25 222.679 305.972 212.897Z" fill="#F2F2F2"/>
</g>
<g filter="url(#filter0_f)">
<ellipse cx="200.516" cy="346.534" rx="182.19" ry="8.14392" fill="#F0F0F0"/>
</g>
</g>
<defs>
<filter id="filter0_f" x="8.32611" y="328.39" width="384.379" height="36.2878" filterUnits="userSpaceOnUse" color-interpolation-filters="sRGB">
<feFlood flood-opacity="0" result="BackgroundImageFix"/>
<feBlend mode="normal" in="SourceGraphic" in2="BackgroundImageFix" result="shape"/>
<feGaussianBlur stdDeviation="5" result="effect1_foregroundBlur"/>
</filter>
<linearGradient id="paint0_linear" x1="93.2402" y1="231.084" x2="48.9385" y2="209.135" gradientUnits="userSpaceOnUse">
<stop stop-color="#F7931A"/>
<stop offset="1" stop-color="#F44336"/>
</linearGradient>
<linearGradient id="paint1_linear" x1="58.1698" y1="227.78" x2="113.802" y2="306.28" gradientUnits="userSpaceOnUse">
<stop stop-color="#F7931A"/>
<stop offset="1" stop-color="#F44336"/>
</linearGradient>
<linearGradient id="paint2_linear" x1="101.523" y1="277.02" x2="57.221" y2="255.071" gradientUnits="userSpaceOnUse">
<stop stop-color="#F7931A"/>
<stop offset="1" stop-color="#F44336"/>
</linearGradient>
<linearGradient id="paint3_linear" x1="66.4497" y1="273.715" x2="122.076" y2="352.211" gradientUnits="userSpaceOnUse">
<stop stop-color="#F7931A"/>
<stop offset="1" stop-color="#F44336"/>
</linearGradient>
<linearGradient id="paint4_linear" x1="93.2402" y1="299.988" x2="48.9384" y2="278.039" gradientUnits="userSpaceOnUse">
<stop stop-color="#F7931A"/>
<stop offset="1" stop-color="#F44336"/>
</linearGradient>
<linearGradient id="paint5_linear" x1="58.1698" y1="296.683" x2="113.795" y2="375.181" gradientUnits="userSpaceOnUse">
<stop stop-color="#F7931A"/>
<stop offset="1" stop-color="#F44336"/>
</linearGradient>
<linearGradient id="paint6_linear" x1="80.1912" y1="322.956" x2="35.8896" y2="301.007" gradientUnits="userSpaceOnUse">
<stop stop-color="#F7931A"/>
<stop offset="1" stop-color="#F44336"/>
</linearGradient>
<linearGradient id="paint7_linear" x1="45.1184" y1="319.651" x2="100.744" y2="398.148" gradientUnits="userSpaceOnUse">
<stop stop-color="#F7931A"/>
<stop offset="1" stop-color="#F44336"/>
</linearGradient>
<linearGradient id="paint8_linear" x1="84.3304" y1="254.052" x2="40.0288" y2="232.103" gradientUnits="userSpaceOnUse">
<stop stop-color="#F7931A"/>
<stop offset="1" stop-color="#F44336"/>
</linearGradient>
<linearGradient id="paint9_linear" x1="49.2597" y1="250.746" x2="104.88" y2="329.24" gradientUnits="userSpaceOnUse">
<stop stop-color="#F7931A"/>
<stop offset="1" stop-color="#F44336"/>
</linearGradient>
<linearGradient id="paint10_linear" x1="124.568" y1="216.066" x2="130.58" y2="221.313" gradientUnits="userSpaceOnUse">
<stop stop-color="#F7931A"/>
<stop offset="1" stop-color="#F44336"/>
</linearGradient>
<linearGradient id="paint11_linear" x1="144.84" y1="216.066" x2="150.852" y2="221.319" gradientUnits="userSpaceOnUse">
<stop stop-color="#F7931A"/>
<stop offset="1" stop-color="#F44336"/>
</linearGradient>
<linearGradient id="paint12_linear" x1="111.531" y1="180.929" x2="156.693" y2="151.589" gradientUnits="userSpaceOnUse">
<stop stop-color="#F7931A"/>
<stop offset="1" stop-color="#F44336"/>
</linearGradient>
<linearGradient id="paint13_linear" x1="125.355" y1="187.652" x2="137.991" y2="140.766" gradientUnits="userSpaceOnUse">
<stop stop-color="#F7931A"/>
<stop offset="1" stop-color="#F44336"/>
</linearGradient>
<linearGradient id="paint14_linear" x1="224.589" y1="168.134" x2="226.293" y2="216.738" gradientUnits="userSpaceOnUse">
<stop stop-color="#308DFC"/>
<stop offset="1" stop-color="#15D4F0"/>
</linearGradient>
<linearGradient id="paint15_linear" x1="206.392" y1="173.318" x2="244.628" y2="211.402" gradientUnits="userSpaceOnUse">
<stop stop-color="#3E9EF7"/>
<stop offset="1" stop-color="#77BEFF" stop-opacity="0.97"/>
</linearGradient>
<clipPath id="clip0">
<rect width="401" height="412" fill="white" transform="translate(0.0157471 0.299561)"/>
</clipPath>
<clipPath id="clip1">
<rect width="397" height="213" fill="white" transform="translate(4.00006 125.39)"/>
</clipPath>
<clipPath id="clip2">
<rect width="24" height="24" fill="white" transform="translate(117.829 155.286)"/>
</clipPath>
<clipPath id="clip3">
<rect width="20" height="20" fill="white" transform="translate(214.9 182.361)"/>
</clipPath>
</defs>
</svg>
