<svg width="65" height="65" viewBox="0 0 65 65" fill="none" xmlns="http://www.w3.org/2000/svg">
<path d="M34.8644 18.9791V31.5508L43.2071 39.8934C44.1021 40.7885 44.1021 42.2394 43.2071 43.1343C42.3121 44.0293 40.8611 44.0292 39.9662 43.1343L30.9523 34.1204C30.5225 33.6907 30.2811 33.1077 30.2811 32.5V18.9791C30.2811 17.7134 31.3071 16.6875 32.5727 16.6875C33.8384 16.6875 34.8644 17.7134 34.8644 18.9791ZM41.5867 3.16663H23.5588C18.7589 3.16663 14.0235 4.85352 10.2346 8.14848V5.45829C10.2346 4.19261 9.20863 3.16663 7.94294 3.16663C6.67725 3.16663 5.65127 4.19261 5.65127 5.45829V14.4722C5.65127 15.7379 6.68608 16.7639 7.94294 16.7639H16.9569C18.2226 16.7639 19.2485 15.7379 19.2485 14.4722C19.2485 13.2065 18.2226 12.1806 16.9569 12.1806H12.6218C15.5224 9.38415 19.4378 7.74996 23.5588 7.74996H41.5866C50.2636 7.74996 57.3227 14.8091 57.3227 23.486V41.5138C57.3227 50.1908 50.2636 57.25 41.5867 57.25H23.5588C14.8819 57.25 7.82274 50.1908 7.82274 41.5139V32.5C7.82274 31.2343 6.79676 30.2083 5.53108 30.2083C4.26539 30.2083 3.23941 31.2343 3.23941 32.5V41.5139C3.23941 52.7181 12.3546 61.8333 23.5588 61.8333H41.5866C52.7909 61.8333 61.9061 52.7181 61.9061 41.5139V23.486C61.9061 12.2818 52.7909 3.16663 41.5867 3.16663V3.16663Z" fill="white"/>
</svg>
